<svg width="500" height="500" viewBox="0 0 500 500" xmlns="http://www.w3.org/2000/svg">
  <path d="M250 90
           C150 90, 75 165, 75 260
           C75 310, 95 350, 125 380
           L95 440
           L165 400
           C190 415, 218 420, 250 420
           C370 420, 425 345, 425 260
           C425 165, 350 90, 250 90 Z"
        fill="none"
        stroke="#B38463"
        stroke-width="12"
        stroke-linecap="round"
        stroke-linejoin="round"/>
  <circle cx="205" cy="265" r="18" fill="#B38463" />
  <circle cx="305" cy="265" r="18" fill="#B38463" />
  <path d="M390 150 A55 55 0 0 1 420 200"
        fill="none" stroke="#B38463" stroke-width="12" stroke-linecap="round" />
  <path d="M410 115 A90 90 0 0 1 455 190"
        fill="none" stroke="#B38463" stroke-width="12" stroke-linecap="round" />
</svg>
