<svg width="500" height="500" viewBox="0 0 520 500" xmlns="http://www.w3.org/2000/svg">
  <!-- Speech bubble -->
  <path d="M230 90
           C130 90, 55 165, 55 260
           C55 310, 75 350, 105 380
           L75 440
           L145 400
           C170 415, 198 420, 230 420
           C350 420, 405 345, 405 260
           C405 165, 330 90, 230 90 Z"
        fill="none"
        stroke="#B38463"
        stroke-width="12"
        stroke-linecap="round"
        stroke-linejoin="round"/>
  <!-- Eyes -->
  <circle cx="185" cy="265" r="18" fill="#B38463" />
  <circle cx="285" cy="265" r="18" fill="#B38463" />
  <!-- Signal arcs -->
  <path d="M370 150 A55 55 0 0 1 400 200"
        fill="none" stroke="#B38463" stroke-width="12" stroke-linecap="round" />
  <path d="M390 115 A90 90 0 0 1 435 190"
        fill="none" stroke="#B38463" stroke-width="12" stroke-linecap="round" />
</svg>
